<svg width="22" height="26" viewBox="0 0 22 26" fill="none" xmlns="http://www.w3.org/2000/svg">
<path d="M11.0023 25.408C9.43826 25.408 8.01026 25.1473 6.71826 24.626C5.42626 24.1047 4.32692 23.334 3.42026 22.314C2.51359 21.2713 1.81092 19.9907 1.31226 18.472C0.813591 16.9307 0.564258 15.1513 0.564258 13.134C0.564258 11.1167 0.813591 9.34867 1.31226 7.83C1.81092 6.28867 2.51359 5.008 3.42026 3.988C4.32692 2.94533 5.42626 2.16333 6.71826 1.642C8.01026 1.12067 9.43826 0.859999 11.0023 0.859999C12.5663 0.859999 13.9943 1.12067 15.2863 1.642C16.5783 2.16333 17.6776 2.94533 18.5843 3.988C19.4909 5.008 20.1936 6.28867 20.6923 7.83C21.1909 9.34867 21.4403 11.1167 21.4403 13.134C21.4403 15.1513 21.1909 16.9307 20.6923 18.472C20.1936 19.9907 19.4909 21.2713 18.5843 22.314C17.6776 23.334 16.5783 24.1047 15.2863 24.626C13.9943 25.1473 12.5663 25.408 11.0023 25.408ZM11.0023 20.818C12.5663 20.818 13.7789 20.308 14.6403 19.288C15.5243 18.268 15.9663 16.806 15.9663 14.902V11.366C15.9663 9.462 15.5243 8 14.6403 6.98C13.7789 5.96 12.5663 5.45 11.0023 5.45C9.43826 5.45 8.21426 5.96 7.33026 6.98C6.46892 8 6.03826 9.462 6.03826 11.366V14.902C6.03826 16.806 6.46892 18.268 7.33026 19.288C8.21426 20.308 9.43826 20.818 11.0023 20.818Z" fill="black"/>
</svg>
